<svg width="64" height="64" viewBox="0 0 64 64" fill="none" xmlns="http://www.w3.org/2000/svg">
  <rect width="64" height="64" rx="12" fill="#6366F1"/>
  <path d="M32 12C38.6274 12 44 17.3726 44 24V28C46.2091 28 48 29.7909 48 32C48 34.2091 46.2091 36 44 36V40C44 46.6274 38.6274 52 32 52C25.3726 52 20 46.6274 20 40V36C17.7909 36 16 34.2091 16 32C16 29.7909 17.7909 28 20 28V24C20 17.3726 25.3726 12 32 12Z" fill="white"/>
  <circle cx="28" cy="28" r="2" fill="#6366F1"/>
  <circle cx="36" cy="28" r="2" fill="#6366F1"/>
  <path d="M28 36C28 38.2091 29.7909 40 32 40C34.2091 40 36 38.2091 36 36" stroke="#6366F1" stroke-width="2" stroke-linecap="round"/>
</svg>